<svg xmlns="http://www.w3.org/2000/svg" viewBox="0 0 1920 1080"><defs><style>.cls-1{fill:#372f84;}.cls-2{fill:#e9a93e;}</style></defs><g id="_05._Exemples" data-name="05. Exemples"><g id="Symbole_du_logo" data-name="Symbole du logo"><path class="cls-1" d="M913.7,387.63c-.28.16.33,0,0,0-51.94,0-112.93,46.05-88.28,145.88,6.09,24.67,17.92,47.55,35.17,65.81,19.67,20.84,50.3,40.56,94.69,37.55,32.18-2.17,62.46-17.35,82.51-43.34,14.62-19,25.34-45.37,14.8-78.16-9.8-30.5-37.48-51.5-68.73-51.63-2.27,0-4.63.06-7.06.21-15.84,1-21.22,10.35-22.61,16.81A14.82,14.82,0,0,0,970,498.5c.57-.06,1.15-.09,1.72-.13,20.35-1.11,36.87,16.77,35.62,37.69-1.33,22.3-13.4,35.66-26.67,43.64-19.34,11.62-43,12.58-63.63,3.69-52.46-22.58-56.49-72.72-56.49-72.72-7.08-63.11,22.43-101,53.71-123.17"/><path class="cls-2" d="M793.9,517a180.34,180.34,0,0,0,23,88.5c46.11,82.25,151,111.13,233.28,65.13l.84-.47c46.83-26.38,92.81-78.09,68.16-177.92-6.09-24.67-17.92-47.55-35.16-65.81-19.67-20.84-50.31-40.57-94.69-37.55-32.18,2.17-62.47,17.35-82.51,43.33-14.63,19-25.35,45.38-14.8,78.16,9.79,30.51,37.48,51.51,68.73,51.64,2.26,0,4.62-.06,7.06-.21,15.84-1,21.22-10.36,22.6-16.81a14.82,14.82,0,0,0-15.77-17.75c-.58.06-1.16.1-1.72.13-20.36,1.11-36.87-16.76-35.62-37.68,1.32-22.3,13.4-35.66,26.67-43.64,19.34-11.62,43-12.59,63.63-3.7,52.46,22.59,56.49,72.72,56.49,72.72,7.08,63.11-22.43,101-53.72,123.18-40.85,28.93-96.38,34.6-139.63,9.93C816.9,606,797.12,545.49,794,512.06,793.92,513.7,793.9,515.35,793.9,517Z"/></g></g></svg>